<mxfile host="app.diagrams.net" modified="2023-04-08T11:39:38.923Z" agent="Mozilla/5.0 (Windows NT 10.0; Win64; x64) AppleWebKit/537.36 (KHTML, like Gecko) Chrome/111.0.0.0 Safari/537.36 Edg/111.0.1661.62" etag="7nnFYaz-VTvnA-1M5MWp" version="21.1.4" type="device" pages="5">
  <diagram id="gz7V85-iep6LajHkWm5Z" name="Spring Boot">
    <mxGraphModel dx="1449" dy="796" grid="1" gridSize="10" guides="1" tooltips="1" connect="1" arrows="1" fold="1" page="1" pageScale="1" pageWidth="850" pageHeight="1100" math="0" shadow="0">
      <root>
        <mxCell id="0" />
        <mxCell id="1" parent="0" />
        <mxCell id="RFFhQmCW1EyVHn6mRK5w-1" value="" style="rounded=0;whiteSpace=wrap;html=1;fontSize=18;fillColor=#d5e8d4;strokeColor=#82b366;opacity=70;" vertex="1" parent="1">
          <mxGeometry x="10" y="200" width="1080" height="620" as="geometry" />
        </mxCell>
        <mxCell id="RFFhQmCW1EyVHn6mRK5w-2" value="&lt;b&gt;&lt;font style=&quot;font-size: 18px;&quot;&gt;Java Spring Controller&lt;/font&gt;&lt;/b&gt;" style="rounded=1;whiteSpace=wrap;html=1;fontSize=12;fontColor=#ffffff;fillColor=#60a917;strokeColor=#2D7600;" vertex="1" parent="1">
          <mxGeometry x="30" y="210" width="320" height="80" as="geometry" />
        </mxCell>
        <mxCell id="RFFhQmCW1EyVHn6mRK5w-3" value="&lt;b&gt;&lt;font style=&quot;font-size: 18px;&quot;&gt;Java Spring Model&lt;/font&gt;&lt;/b&gt;" style="rounded=1;whiteSpace=wrap;html=1;fontSize=12;fontColor=#ffffff;fillColor=#60a917;strokeColor=#2D7600;" vertex="1" parent="1">
          <mxGeometry x="30" y="490" width="320" height="320" as="geometry" />
        </mxCell>
        <mxCell id="RFFhQmCW1EyVHn6mRK5w-4" value="" style="endArrow=classic;startArrow=classic;html=1;rounded=0;labelBackgroundColor=none;fontSize=12;fontColor=#000000;entryX=0.5;entryY=1;entryDx=0;entryDy=0;exitX=0.5;exitY=0;exitDx=0;exitDy=0;" edge="1" parent="1" source="RFFhQmCW1EyVHn6mRK5w-3" target="RFFhQmCW1EyVHn6mRK5w-2">
          <mxGeometry width="50" height="50" relative="1" as="geometry">
            <mxPoint x="70" y="290" as="sourcePoint" />
            <mxPoint x="89.57999999999998" y="270" as="targetPoint" />
          </mxGeometry>
        </mxCell>
        <mxCell id="RFFhQmCW1EyVHn6mRK5w-5" value="&lt;b&gt;&lt;font style=&quot;font-size: 18px;&quot;&gt;RestController&lt;/font&gt;&lt;/b&gt;" style="rounded=1;whiteSpace=wrap;html=1;fontSize=12;fontColor=#ffffff;fillColor=#60a917;strokeColor=#2D7600;" vertex="1" parent="1">
          <mxGeometry x="430" y="210" width="320" height="80" as="geometry" />
        </mxCell>
        <mxCell id="RFFhQmCW1EyVHn6mRK5w-6" value="&lt;b&gt;&lt;font style=&quot;font-size: 18px;&quot;&gt;Service&lt;/font&gt;&lt;/b&gt;" style="rounded=1;whiteSpace=wrap;html=1;fontSize=12;fontColor=#ffffff;fillColor=#60a917;strokeColor=#2D7600;" vertex="1" parent="1">
          <mxGeometry x="430" y="490" width="320" height="120" as="geometry" />
        </mxCell>
        <mxCell id="RFFhQmCW1EyVHn6mRK5w-7" value="&lt;b&gt;&lt;font style=&quot;font-size: 18px;&quot;&gt;Repository&lt;/font&gt;&lt;/b&gt;" style="rounded=1;whiteSpace=wrap;html=1;fontSize=12;fontColor=#ffffff;fillColor=#60a917;strokeColor=#2D7600;" vertex="1" parent="1">
          <mxGeometry x="430" y="690" width="320" height="120" as="geometry" />
        </mxCell>
        <mxCell id="RFFhQmCW1EyVHn6mRK5w-8" value="" style="endArrow=none;dashed=1;html=1;dashPattern=1 3;strokeWidth=2;rounded=0;exitX=0;exitY=0.5;exitDx=0;exitDy=0;" edge="1" parent="1" source="RFFhQmCW1EyVHn6mRK5w-6">
          <mxGeometry width="50" height="50" relative="1" as="geometry">
            <mxPoint x="570" y="550" as="sourcePoint" />
            <mxPoint x="350" y="550" as="targetPoint" />
          </mxGeometry>
        </mxCell>
        <mxCell id="RFFhQmCW1EyVHn6mRK5w-9" value="" style="endArrow=none;dashed=1;html=1;dashPattern=1 3;strokeWidth=2;rounded=0;exitX=0;exitY=0.5;exitDx=0;exitDy=0;entryX=1;entryY=0.813;entryDx=0;entryDy=0;entryPerimeter=0;" edge="1" parent="1" source="RFFhQmCW1EyVHn6mRK5w-7" target="RFFhQmCW1EyVHn6mRK5w-3">
          <mxGeometry width="50" height="50" relative="1" as="geometry">
            <mxPoint x="440" y="440" as="sourcePoint" />
            <mxPoint x="359" y="440" as="targetPoint" />
          </mxGeometry>
        </mxCell>
        <mxCell id="RFFhQmCW1EyVHn6mRK5w-10" value="&lt;a href=&quot;https://viblo.asia/p/luong-di-trong-spring-boot-ORNZqdELK0n&quot;&gt;Luồng đi trong Spring Boot (viblo.asia)&lt;/a&gt;" style="rounded=0;whiteSpace=wrap;html=1;fontSize=18;" vertex="1" parent="1">
          <mxGeometry x="40" y="40" width="360" height="40" as="geometry" />
        </mxCell>
        <mxCell id="RFFhQmCW1EyVHn6mRK5w-11" value="" style="endArrow=none;dashed=1;html=1;dashPattern=1 3;strokeWidth=2;rounded=0;exitX=0;exitY=0.5;exitDx=0;exitDy=0;entryX=1;entryY=0.5;entryDx=0;entryDy=0;" edge="1" parent="1" source="RFFhQmCW1EyVHn6mRK5w-5" target="RFFhQmCW1EyVHn6mRK5w-2">
          <mxGeometry width="50" height="50" relative="1" as="geometry">
            <mxPoint x="440" y="440" as="sourcePoint" />
            <mxPoint x="359" y="440" as="targetPoint" />
          </mxGeometry>
        </mxCell>
        <mxCell id="RFFhQmCW1EyVHn6mRK5w-12" value="" style="endArrow=classic;html=1;rounded=0;fontSize=18;exitX=0.25;exitY=1;exitDx=0;exitDy=0;entryX=0.25;entryY=0;entryDx=0;entryDy=0;" edge="1" parent="1" source="RFFhQmCW1EyVHn6mRK5w-5" target="RFFhQmCW1EyVHn6mRK5w-6">
          <mxGeometry width="50" height="50" relative="1" as="geometry">
            <mxPoint x="580" y="510" as="sourcePoint" />
            <mxPoint x="630" y="460" as="targetPoint" />
          </mxGeometry>
        </mxCell>
        <mxCell id="RFFhQmCW1EyVHn6mRK5w-13" value="" style="endArrow=classic;html=1;rounded=0;fontSize=18;exitX=0.25;exitY=1;exitDx=0;exitDy=0;entryX=0.25;entryY=0;entryDx=0;entryDy=0;" edge="1" parent="1" source="RFFhQmCW1EyVHn6mRK5w-6" target="RFFhQmCW1EyVHn6mRK5w-7">
          <mxGeometry width="50" height="50" relative="1" as="geometry">
            <mxPoint x="520" y="300" as="sourcePoint" />
            <mxPoint x="520" y="380" as="targetPoint" />
          </mxGeometry>
        </mxCell>
        <mxCell id="RFFhQmCW1EyVHn6mRK5w-14" value="" style="endArrow=classic;html=1;rounded=0;fontSize=18;exitX=0.75;exitY=0;exitDx=0;exitDy=0;entryX=0.75;entryY=1;entryDx=0;entryDy=0;" edge="1" parent="1" source="RFFhQmCW1EyVHn6mRK5w-7" target="RFFhQmCW1EyVHn6mRK5w-6">
          <mxGeometry width="50" height="50" relative="1" as="geometry">
            <mxPoint x="520" y="500" as="sourcePoint" />
            <mxPoint x="520" y="700" as="targetPoint" />
          </mxGeometry>
        </mxCell>
        <mxCell id="RFFhQmCW1EyVHn6mRK5w-15" value="" style="endArrow=classic;html=1;rounded=0;fontSize=18;exitX=0.75;exitY=0;exitDx=0;exitDy=0;entryX=0.75;entryY=1;entryDx=0;entryDy=0;" edge="1" parent="1" source="RFFhQmCW1EyVHn6mRK5w-6" target="RFFhQmCW1EyVHn6mRK5w-5">
          <mxGeometry width="50" height="50" relative="1" as="geometry">
            <mxPoint x="680" y="700" as="sourcePoint" />
            <mxPoint x="680" y="500" as="targetPoint" />
          </mxGeometry>
        </mxCell>
        <mxCell id="RFFhQmCW1EyVHn6mRK5w-16" value="call" style="text;html=1;strokeColor=none;fillColor=none;align=right;verticalAlign=middle;whiteSpace=wrap;rounded=0;fontSize=18;fontStyle=1" vertex="1" parent="1">
          <mxGeometry x="440" y="320" width="60" height="30" as="geometry" />
        </mxCell>
        <mxCell id="RFFhQmCW1EyVHn6mRK5w-17" value="call" style="text;html=1;strokeColor=none;fillColor=none;align=right;verticalAlign=middle;whiteSpace=wrap;rounded=0;fontSize=18;fontStyle=1" vertex="1" parent="1">
          <mxGeometry x="440" y="632" width="60" height="30" as="geometry" />
        </mxCell>
        <mxCell id="RFFhQmCW1EyVHn6mRK5w-18" value="return ObjectModel" style="text;html=1;strokeColor=none;fillColor=none;align=left;verticalAlign=middle;whiteSpace=wrap;rounded=0;fontSize=18;fontStyle=1" vertex="1" parent="1">
          <mxGeometry x="680" y="320" width="140" height="30" as="geometry" />
        </mxCell>
        <mxCell id="RFFhQmCW1EyVHn6mRK5w-19" value="return Object" style="text;html=1;strokeColor=none;fillColor=none;align=left;verticalAlign=middle;whiteSpace=wrap;rounded=0;fontSize=18;fontStyle=1" vertex="1" parent="1">
          <mxGeometry x="680" y="632" width="120" height="30" as="geometry" />
        </mxCell>
        <mxCell id="RFFhQmCW1EyVHn6mRK5w-20" value="convert Object to ObjectModel" style="text;html=1;strokeColor=none;fillColor=none;align=left;verticalAlign=middle;whiteSpace=wrap;rounded=0;fontSize=18;fontStyle=1" vertex="1" parent="1">
          <mxGeometry x="680" y="430" width="110" height="30" as="geometry" />
        </mxCell>
        <mxCell id="RFFhQmCW1EyVHn6mRK5w-21" value="User" style="swimlane;childLayout=stackLayout;horizontal=1;startSize=30;horizontalStack=0;rounded=1;fontSize=14;fontStyle=1;strokeWidth=2;resizeParent=0;resizeLast=1;shadow=0;dashed=0;align=center;fillColor=#1ba1e2;fontColor=#ffffff;strokeColor=#006EAF;" vertex="1" parent="1">
          <mxGeometry x="860" y="600" width="180" height="100" as="geometry" />
        </mxCell>
        <mxCell id="RFFhQmCW1EyVHn6mRK5w-22" value="+ id = &quot;00&quot;&#xa;+ name = &quot;NVA&quot;&#xa;+ townID = &quot;001&quot;&#xa;+ password = &quot;123456789&quot;" style="align=left;strokeColor=none;fillColor=none;spacingLeft=4;fontSize=12;verticalAlign=top;resizable=0;rotatable=0;part=1;" vertex="1" parent="RFFhQmCW1EyVHn6mRK5w-21">
          <mxGeometry y="30" width="180" height="70" as="geometry" />
        </mxCell>
        <mxCell id="RFFhQmCW1EyVHn6mRK5w-23" value="UserModel" style="swimlane;childLayout=stackLayout;horizontal=1;startSize=30;horizontalStack=0;rounded=1;fontSize=14;fontStyle=1;strokeWidth=2;resizeParent=0;resizeLast=1;shadow=0;dashed=0;align=center;fillColor=#1ba1e2;fontColor=#ffffff;strokeColor=#006EAF;" vertex="1" parent="1">
          <mxGeometry x="860" y="290" width="180" height="90" as="geometry" />
        </mxCell>
        <mxCell id="RFFhQmCW1EyVHn6mRK5w-24" value="+ id = &quot;00&quot;&#xa;+ name = &quot;NVA&quot;&#xa;+ town = &quot;Da Nang&quot;" style="align=left;strokeColor=none;fillColor=none;spacingLeft=4;fontSize=12;verticalAlign=top;resizable=0;rotatable=0;part=1;" vertex="1" parent="RFFhQmCW1EyVHn6mRK5w-23">
          <mxGeometry y="30" width="180" height="60" as="geometry" />
        </mxCell>
        <mxCell id="RFFhQmCW1EyVHn6mRK5w-25" value="" style="shape=step;perimeter=stepPerimeter;whiteSpace=wrap;html=1;fixedSize=1;fontSize=18;fillColor=#1ba1e2;fontColor=#ffffff;strokeColor=#006EAF;" vertex="1" parent="1">
          <mxGeometry x="825" y="405" width="250" height="80" as="geometry" />
        </mxCell>
        <mxCell id="RFFhQmCW1EyVHn6mRK5w-26" value="&lt;p style=&quot;line-height: 170%;&quot;&gt;password&lt;br&gt;townID&lt;/p&gt;" style="text;html=1;strokeColor=none;fillColor=#1ba1e2;align=left;verticalAlign=middle;whiteSpace=wrap;rounded=0;fontSize=18;fontColor=#ffffff;" vertex="1" parent="1">
          <mxGeometry x="870" y="420" width="90" height="50" as="geometry" />
        </mxCell>
        <mxCell id="RFFhQmCW1EyVHn6mRK5w-27" value="&lt;p style=&quot;line-height: 170%;&quot;&gt;&lt;br&gt;town&lt;/p&gt;" style="text;html=1;strokeColor=none;fillColor=#1ba1e2;align=left;verticalAlign=middle;whiteSpace=wrap;rounded=0;fontSize=18;fontColor=#ffffff;" vertex="1" parent="1">
          <mxGeometry x="1020" y="420" width="40" height="50" as="geometry" />
        </mxCell>
        <mxCell id="RFFhQmCW1EyVHn6mRK5w-28" value="" style="endArrow=classic;html=1;rounded=0;fontSize=18;fillColor=#1ba1e2;strokeColor=#000066;" edge="1" parent="1">
          <mxGeometry width="50" height="50" relative="1" as="geometry">
            <mxPoint x="960" y="430" as="sourcePoint" />
            <mxPoint x="1010" y="430" as="targetPoint" />
          </mxGeometry>
        </mxCell>
        <mxCell id="RFFhQmCW1EyVHn6mRK5w-29" value="" style="endArrow=classic;html=1;rounded=0;fontSize=18;fillColor=#1ba1e2;strokeColor=#000066;" edge="1" parent="1">
          <mxGeometry width="50" height="50" relative="1" as="geometry">
            <mxPoint x="960" y="460" as="sourcePoint" />
            <mxPoint x="1010" y="460" as="targetPoint" />
          </mxGeometry>
        </mxCell>
        <mxCell id="RFFhQmCW1EyVHn6mRK5w-30" value="" style="endArrow=classic;html=1;rounded=0;fontSize=18;exitX=0.5;exitY=0;exitDx=0;exitDy=0;entryX=0.5;entryY=1;entryDx=0;entryDy=0;" edge="1" parent="1" source="RFFhQmCW1EyVHn6mRK5w-21" target="RFFhQmCW1EyVHn6mRK5w-25">
          <mxGeometry width="50" height="50" relative="1" as="geometry">
            <mxPoint x="470" y="450" as="sourcePoint" />
            <mxPoint x="1000" y="510" as="targetPoint" />
          </mxGeometry>
        </mxCell>
        <mxCell id="RFFhQmCW1EyVHn6mRK5w-31" value="" style="endArrow=classic;html=1;rounded=0;fontSize=18;exitX=0.5;exitY=0;exitDx=0;exitDy=0;entryX=0.5;entryY=1;entryDx=0;entryDy=0;" edge="1" parent="1" source="RFFhQmCW1EyVHn6mRK5w-25" target="RFFhQmCW1EyVHn6mRK5w-24">
          <mxGeometry width="50" height="50" relative="1" as="geometry">
            <mxPoint x="960" y="610" as="sourcePoint" />
            <mxPoint x="960" y="495" as="targetPoint" />
          </mxGeometry>
        </mxCell>
        <mxCell id="RFFhQmCW1EyVHn6mRK5w-32" value="" style="endArrow=none;dashed=1;html=1;dashPattern=1 3;strokeWidth=2;rounded=0;fontSize=18;exitX=0;exitY=0.25;exitDx=0;exitDy=0;entryX=1;entryY=0.5;entryDx=0;entryDy=0;" edge="1" parent="1" source="RFFhQmCW1EyVHn6mRK5w-22" target="RFFhQmCW1EyVHn6mRK5w-19">
          <mxGeometry width="50" height="50" relative="1" as="geometry">
            <mxPoint x="470" y="470" as="sourcePoint" />
            <mxPoint x="520" y="420" as="targetPoint" />
          </mxGeometry>
        </mxCell>
        <mxCell id="RFFhQmCW1EyVHn6mRK5w-33" value="" style="endArrow=none;dashed=1;html=1;dashPattern=1 3;strokeWidth=2;rounded=0;fontSize=18;exitX=0;exitY=0.25;exitDx=0;exitDy=0;entryX=0.75;entryY=1;entryDx=0;entryDy=0;" edge="1" parent="1" target="RFFhQmCW1EyVHn6mRK5w-18">
          <mxGeometry width="50" height="50" relative="1" as="geometry">
            <mxPoint x="860" y="349.75" as="sourcePoint" />
            <mxPoint x="800" y="348.75" as="targetPoint" />
          </mxGeometry>
        </mxCell>
        <mxCell id="RFFhQmCW1EyVHn6mRK5w-34" value="&lt;b&gt;&lt;font style=&quot;font-size: 36px;&quot;&gt;VIEW&lt;/font&gt;&lt;/b&gt;" style="rounded=1;whiteSpace=wrap;html=1;fontSize=18;fillColor=#1ba1e2;fontColor=#ffffff;strokeColor=#006EAF;" vertex="1" parent="1">
          <mxGeometry x="10" y="110" width="1080" height="60" as="geometry" />
        </mxCell>
        <mxCell id="RFFhQmCW1EyVHn6mRK5w-35" value="&lt;b&gt;&lt;font style=&quot;font-size: 36px;&quot;&gt;DATABASE&lt;/font&gt;&lt;/b&gt;" style="rounded=1;whiteSpace=wrap;html=1;fontSize=18;fillColor=#1ba1e2;fontColor=#ffffff;strokeColor=#006EAF;" vertex="1" parent="1">
          <mxGeometry x="10" y="860" width="1080" height="60" as="geometry" />
        </mxCell>
        <mxCell id="RFFhQmCW1EyVHn6mRK5w-36" value="" style="endArrow=classic;startArrow=classic;html=1;rounded=0;fontSize=36;entryX=0.5;entryY=1;entryDx=0;entryDy=0;exitX=0.5;exitY=0;exitDx=0;exitDy=0;" edge="1" parent="1" source="RFFhQmCW1EyVHn6mRK5w-35" target="RFFhQmCW1EyVHn6mRK5w-1">
          <mxGeometry width="50" height="50" relative="1" as="geometry">
            <mxPoint x="600" y="840" as="sourcePoint" />
            <mxPoint x="610" y="600" as="targetPoint" />
          </mxGeometry>
        </mxCell>
        <mxCell id="RFFhQmCW1EyVHn6mRK5w-37" value="" style="endArrow=classic;startArrow=classic;html=1;rounded=0;fontSize=36;entryX=0.5;entryY=1;entryDx=0;entryDy=0;exitX=0.5;exitY=0;exitDx=0;exitDy=0;" edge="1" parent="1" source="RFFhQmCW1EyVHn6mRK5w-1" target="RFFhQmCW1EyVHn6mRK5w-34">
          <mxGeometry width="50" height="50" relative="1" as="geometry">
            <mxPoint x="560" y="870" as="sourcePoint" />
            <mxPoint x="560" y="830" as="targetPoint" />
          </mxGeometry>
        </mxCell>
        <mxCell id="RFFhQmCW1EyVHn6mRK5w-38" value="" style="endArrow=classic;html=1;rounded=0;fontSize=36;entryX=0.5;entryY=1;entryDx=0;entryDy=0;exitX=0.87;exitY=0;exitDx=0;exitDy=0;exitPerimeter=0;" edge="1" parent="1" source="RFFhQmCW1EyVHn6mRK5w-35" target="RFFhQmCW1EyVHn6mRK5w-22">
          <mxGeometry width="50" height="50" relative="1" as="geometry">
            <mxPoint x="560" y="560" as="sourcePoint" />
            <mxPoint x="610" y="510" as="targetPoint" />
          </mxGeometry>
        </mxCell>
        <mxCell id="RFFhQmCW1EyVHn6mRK5w-39" value="" style="endArrow=classic;html=1;rounded=0;fontSize=36;exitX=0.5;exitY=0;exitDx=0;exitDy=0;entryX=0.871;entryY=1.011;entryDx=0;entryDy=0;entryPerimeter=0;" edge="1" parent="1" source="RFFhQmCW1EyVHn6mRK5w-23" target="RFFhQmCW1EyVHn6mRK5w-34">
          <mxGeometry width="50" height="50" relative="1" as="geometry">
            <mxPoint x="960" y="260" as="sourcePoint" />
            <mxPoint x="1000" y="190" as="targetPoint" />
          </mxGeometry>
        </mxCell>
        <mxCell id="RFFhQmCW1EyVHn6mRK5w-40" value="&lt;font color=&quot;#000066&quot; style=&quot;font-size: 24px;&quot;&gt;X&lt;/font&gt;" style="text;html=1;strokeColor=none;fillColor=none;align=center;verticalAlign=middle;whiteSpace=wrap;rounded=0;fontSize=36;" vertex="1" parent="1">
          <mxGeometry x="968" y="422" width="30" height="10" as="geometry" />
        </mxCell>
      </root>
    </mxGraphModel>
  </diagram>
  <diagram id="zR4pQtgiaeGBXq49J2dI" name="Class Diagram">
    <mxGraphModel dx="1377" dy="756" grid="1" gridSize="10" guides="1" tooltips="1" connect="1" arrows="1" fold="1" page="1" pageScale="1" pageWidth="850" pageHeight="1100" math="0" shadow="0">
      <root>
        <mxCell id="0" />
        <mxCell id="1" parent="0" />
        <mxCell id="aTT4goyWs1WyexI6XYVq-1" value="Tourist" style="swimlane;fontStyle=1;align=center;verticalAlign=top;childLayout=stackLayout;horizontal=1;startSize=26;horizontalStack=0;resizeParent=1;resizeParentMax=0;resizeLast=0;collapsible=1;marginBottom=0;whiteSpace=wrap;html=1;" vertex="1" parent="1">
          <mxGeometry x="160" y="340" width="160" height="86" as="geometry" />
        </mxCell>
        <mxCell id="aTT4goyWs1WyexI6XYVq-2" value="+ field: type" style="text;strokeColor=none;fillColor=none;align=left;verticalAlign=top;spacingLeft=4;spacingRight=4;overflow=hidden;rotatable=0;points=[[0,0.5],[1,0.5]];portConstraint=eastwest;whiteSpace=wrap;html=1;" vertex="1" parent="aTT4goyWs1WyexI6XYVq-1">
          <mxGeometry y="26" width="160" height="26" as="geometry" />
        </mxCell>
        <mxCell id="aTT4goyWs1WyexI6XYVq-3" value="" style="line;strokeWidth=1;fillColor=none;align=left;verticalAlign=middle;spacingTop=-1;spacingLeft=3;spacingRight=3;rotatable=0;labelPosition=right;points=[];portConstraint=eastwest;strokeColor=inherit;" vertex="1" parent="aTT4goyWs1WyexI6XYVq-1">
          <mxGeometry y="52" width="160" height="8" as="geometry" />
        </mxCell>
        <mxCell id="aTT4goyWs1WyexI6XYVq-4" value="+ method(type): type" style="text;strokeColor=none;fillColor=none;align=left;verticalAlign=top;spacingLeft=4;spacingRight=4;overflow=hidden;rotatable=0;points=[[0,0.5],[1,0.5]];portConstraint=eastwest;whiteSpace=wrap;html=1;" vertex="1" parent="aTT4goyWs1WyexI6XYVq-1">
          <mxGeometry y="60" width="160" height="26" as="geometry" />
        </mxCell>
        <mxCell id="aTT4goyWs1WyexI6XYVq-5" value="Tour" style="swimlane;fontStyle=1;align=center;verticalAlign=top;childLayout=stackLayout;horizontal=1;startSize=26;horizontalStack=0;resizeParent=1;resizeParentMax=0;resizeLast=0;collapsible=1;marginBottom=0;whiteSpace=wrap;html=1;" vertex="1" parent="1">
          <mxGeometry x="360" y="340" width="160" height="86" as="geometry" />
        </mxCell>
        <mxCell id="aTT4goyWs1WyexI6XYVq-6" value="+ field: type" style="text;strokeColor=none;fillColor=none;align=left;verticalAlign=top;spacingLeft=4;spacingRight=4;overflow=hidden;rotatable=0;points=[[0,0.5],[1,0.5]];portConstraint=eastwest;whiteSpace=wrap;html=1;" vertex="1" parent="aTT4goyWs1WyexI6XYVq-5">
          <mxGeometry y="26" width="160" height="26" as="geometry" />
        </mxCell>
        <mxCell id="aTT4goyWs1WyexI6XYVq-7" value="" style="line;strokeWidth=1;fillColor=none;align=left;verticalAlign=middle;spacingTop=-1;spacingLeft=3;spacingRight=3;rotatable=0;labelPosition=right;points=[];portConstraint=eastwest;strokeColor=inherit;" vertex="1" parent="aTT4goyWs1WyexI6XYVq-5">
          <mxGeometry y="52" width="160" height="8" as="geometry" />
        </mxCell>
        <mxCell id="aTT4goyWs1WyexI6XYVq-8" value="+ method(type): type" style="text;strokeColor=none;fillColor=none;align=left;verticalAlign=top;spacingLeft=4;spacingRight=4;overflow=hidden;rotatable=0;points=[[0,0.5],[1,0.5]];portConstraint=eastwest;whiteSpace=wrap;html=1;" vertex="1" parent="aTT4goyWs1WyexI6XYVq-5">
          <mxGeometry y="60" width="160" height="26" as="geometry" />
        </mxCell>
        <mxCell id="aTT4goyWs1WyexI6XYVq-9" value="TourOperator" style="swimlane;fontStyle=1;align=center;verticalAlign=top;childLayout=stackLayout;horizontal=1;startSize=26;horizontalStack=0;resizeParent=1;resizeParentMax=0;resizeLast=0;collapsible=1;marginBottom=0;whiteSpace=wrap;html=1;" vertex="1" parent="1">
          <mxGeometry x="560" y="340" width="160" height="86" as="geometry" />
        </mxCell>
        <mxCell id="aTT4goyWs1WyexI6XYVq-10" value="+ field: type" style="text;strokeColor=none;fillColor=none;align=left;verticalAlign=top;spacingLeft=4;spacingRight=4;overflow=hidden;rotatable=0;points=[[0,0.5],[1,0.5]];portConstraint=eastwest;whiteSpace=wrap;html=1;" vertex="1" parent="aTT4goyWs1WyexI6XYVq-9">
          <mxGeometry y="26" width="160" height="26" as="geometry" />
        </mxCell>
        <mxCell id="aTT4goyWs1WyexI6XYVq-11" value="" style="line;strokeWidth=1;fillColor=none;align=left;verticalAlign=middle;spacingTop=-1;spacingLeft=3;spacingRight=3;rotatable=0;labelPosition=right;points=[];portConstraint=eastwest;strokeColor=inherit;" vertex="1" parent="aTT4goyWs1WyexI6XYVq-9">
          <mxGeometry y="52" width="160" height="8" as="geometry" />
        </mxCell>
        <mxCell id="aTT4goyWs1WyexI6XYVq-12" value="+ method(type): type" style="text;strokeColor=none;fillColor=none;align=left;verticalAlign=top;spacingLeft=4;spacingRight=4;overflow=hidden;rotatable=0;points=[[0,0.5],[1,0.5]];portConstraint=eastwest;whiteSpace=wrap;html=1;" vertex="1" parent="aTT4goyWs1WyexI6XYVq-9">
          <mxGeometry y="60" width="160" height="26" as="geometry" />
        </mxCell>
        <mxCell id="aTT4goyWs1WyexI6XYVq-13" value="Address" style="swimlane;fontStyle=1;align=center;verticalAlign=top;childLayout=stackLayout;horizontal=1;startSize=26;horizontalStack=0;resizeParent=1;resizeParentMax=0;resizeLast=0;collapsible=1;marginBottom=0;whiteSpace=wrap;html=1;" vertex="1" parent="1">
          <mxGeometry x="390" y="210" width="160" height="86" as="geometry" />
        </mxCell>
        <mxCell id="aTT4goyWs1WyexI6XYVq-14" value="+ field: type" style="text;strokeColor=none;fillColor=none;align=left;verticalAlign=top;spacingLeft=4;spacingRight=4;overflow=hidden;rotatable=0;points=[[0,0.5],[1,0.5]];portConstraint=eastwest;whiteSpace=wrap;html=1;" vertex="1" parent="aTT4goyWs1WyexI6XYVq-13">
          <mxGeometry y="26" width="160" height="26" as="geometry" />
        </mxCell>
        <mxCell id="aTT4goyWs1WyexI6XYVq-15" value="" style="line;strokeWidth=1;fillColor=none;align=left;verticalAlign=middle;spacingTop=-1;spacingLeft=3;spacingRight=3;rotatable=0;labelPosition=right;points=[];portConstraint=eastwest;strokeColor=inherit;" vertex="1" parent="aTT4goyWs1WyexI6XYVq-13">
          <mxGeometry y="52" width="160" height="8" as="geometry" />
        </mxCell>
        <mxCell id="aTT4goyWs1WyexI6XYVq-16" value="+ method(type): type" style="text;strokeColor=none;fillColor=none;align=left;verticalAlign=top;spacingLeft=4;spacingRight=4;overflow=hidden;rotatable=0;points=[[0,0.5],[1,0.5]];portConstraint=eastwest;whiteSpace=wrap;html=1;" vertex="1" parent="aTT4goyWs1WyexI6XYVq-13">
          <mxGeometry y="60" width="160" height="26" as="geometry" />
        </mxCell>
      </root>
    </mxGraphModel>
  </diagram>
  <diagram id="DKIK2_WiZ0iDx2vtJag5" name="Database">
    <mxGraphModel dx="1377" dy="756" grid="1" gridSize="10" guides="1" tooltips="1" connect="1" arrows="1" fold="1" page="1" pageScale="1" pageWidth="850" pageHeight="1100" math="0" shadow="0">
      <root>
        <mxCell id="0" />
        <mxCell id="1" parent="0" />
      </root>
    </mxGraphModel>
  </diagram>
  <diagram name="CRUD API (GET)" id="3Bj2BTu0OtrQPCNWZhes">
    <mxGraphModel dx="1377" dy="756" grid="1" gridSize="10" guides="1" tooltips="1" connect="1" arrows="1" fold="1" page="1" pageScale="1" pageWidth="850" pageHeight="1100" math="0" shadow="0">
      <root>
        <mxCell id="0" />
        <mxCell id="1" parent="0" />
        <mxCell id="9Jy4_vVz5wrA9Z0WlYyC-1" value=":Middleware" style="rounded=0;whiteSpace=wrap;html=1;" vertex="1" parent="1">
          <mxGeometry x="40" y="40" width="80" height="40" as="geometry" />
        </mxCell>
        <mxCell id="9Jy4_vVz5wrA9Z0WlYyC-2" value=":Controller" style="rounded=0;whiteSpace=wrap;html=1;" vertex="1" parent="1">
          <mxGeometry x="280" y="40" width="120" height="40" as="geometry" />
        </mxCell>
        <mxCell id="9Jy4_vVz5wrA9Z0WlYyC-3" value=":Service" style="rounded=0;whiteSpace=wrap;html=1;" vertex="1" parent="1">
          <mxGeometry x="520" y="40" width="120" height="40" as="geometry" />
        </mxCell>
        <mxCell id="9Jy4_vVz5wrA9Z0WlYyC-4" value="" style="endArrow=none;dashed=1;html=1;rounded=0;entryX=0.5;entryY=1;entryDx=0;entryDy=0;" edge="1" parent="1" source="9Jy4_vVz5wrA9Z0WlYyC-25" target="9Jy4_vVz5wrA9Z0WlYyC-1">
          <mxGeometry width="50" height="50" relative="1" as="geometry">
            <mxPoint x="80" y="560" as="sourcePoint" />
            <mxPoint x="490" y="210" as="targetPoint" />
          </mxGeometry>
        </mxCell>
        <mxCell id="9Jy4_vVz5wrA9Z0WlYyC-5" value="" style="endArrow=none;dashed=1;html=1;rounded=0;entryX=0.5;entryY=1;entryDx=0;entryDy=0;" edge="1" parent="1" source="9Jy4_vVz5wrA9Z0WlYyC-13" target="9Jy4_vVz5wrA9Z0WlYyC-2">
          <mxGeometry width="50" height="50" relative="1" as="geometry">
            <mxPoint x="340" y="560" as="sourcePoint" />
            <mxPoint x="339.44" y="90" as="targetPoint" />
          </mxGeometry>
        </mxCell>
        <mxCell id="9Jy4_vVz5wrA9Z0WlYyC-6" value="" style="endArrow=none;dashed=1;html=1;rounded=0;entryX=0.5;entryY=1;entryDx=0;entryDy=0;" edge="1" parent="1" source="9Jy4_vVz5wrA9Z0WlYyC-16" target="9Jy4_vVz5wrA9Z0WlYyC-3">
          <mxGeometry width="50" height="50" relative="1" as="geometry">
            <mxPoint x="580" y="560" as="sourcePoint" />
            <mxPoint x="579.44" y="100" as="targetPoint" />
          </mxGeometry>
        </mxCell>
        <mxCell id="9Jy4_vVz5wrA9Z0WlYyC-7" value=":Repository" style="rounded=0;whiteSpace=wrap;html=1;" vertex="1" parent="1">
          <mxGeometry x="860" y="40" width="120" height="40" as="geometry" />
        </mxCell>
        <mxCell id="9Jy4_vVz5wrA9Z0WlYyC-8" value="" style="endArrow=none;dashed=1;html=1;rounded=0;entryX=0.5;entryY=1;entryDx=0;entryDy=0;" edge="1" parent="1" source="9Jy4_vVz5wrA9Z0WlYyC-18" target="9Jy4_vVz5wrA9Z0WlYyC-7">
          <mxGeometry width="50" height="50" relative="1" as="geometry">
            <mxPoint x="920" y="560" as="sourcePoint" />
            <mxPoint x="919" y="90" as="targetPoint" />
          </mxGeometry>
        </mxCell>
        <mxCell id="9Jy4_vVz5wrA9Z0WlYyC-9" value="" style="rounded=0;whiteSpace=wrap;html=1;" vertex="1" parent="1">
          <mxGeometry x="70" y="120" width="20" height="210" as="geometry" />
        </mxCell>
        <mxCell id="9Jy4_vVz5wrA9Z0WlYyC-10" value="" style="endArrow=classic;html=1;rounded=0;exitX=1;exitY=0;exitDx=0;exitDy=0;" edge="1" parent="1" source="9Jy4_vVz5wrA9Z0WlYyC-9">
          <mxGeometry width="50" height="50" relative="1" as="geometry">
            <mxPoint x="400" y="300" as="sourcePoint" />
            <mxPoint x="330" y="120" as="targetPoint" />
          </mxGeometry>
        </mxCell>
        <mxCell id="9Jy4_vVz5wrA9Z0WlYyC-11" value="GET /api/&amp;lt;entitty&amp;gt;" style="edgeLabel;html=1;align=center;verticalAlign=middle;resizable=0;points=[];fontStyle=1" vertex="1" connectable="0" parent="9Jy4_vVz5wrA9Z0WlYyC-10">
          <mxGeometry x="-0.1841" y="3" relative="1" as="geometry">
            <mxPoint x="12" y="-7" as="offset" />
          </mxGeometry>
        </mxCell>
        <mxCell id="9Jy4_vVz5wrA9Z0WlYyC-12" value="" style="endArrow=none;dashed=1;html=1;rounded=0;entryX=0.5;entryY=1;entryDx=0;entryDy=0;" edge="1" parent="1" target="9Jy4_vVz5wrA9Z0WlYyC-13">
          <mxGeometry width="50" height="50" relative="1" as="geometry">
            <mxPoint x="340" y="680" as="sourcePoint" />
            <mxPoint x="340" y="80" as="targetPoint" />
          </mxGeometry>
        </mxCell>
        <mxCell id="9Jy4_vVz5wrA9Z0WlYyC-13" value="" style="rounded=0;whiteSpace=wrap;html=1;" vertex="1" parent="1">
          <mxGeometry x="330" y="120" width="20" height="200" as="geometry" />
        </mxCell>
        <mxCell id="9Jy4_vVz5wrA9Z0WlYyC-14" value="getAll()" style="endArrow=classic;html=1;rounded=0;exitX=1.022;exitY=0.148;exitDx=0;exitDy=0;entryX=0;entryY=0;entryDx=0;entryDy=0;exitPerimeter=0;" edge="1" parent="1" target="9Jy4_vVz5wrA9Z0WlYyC-16">
          <mxGeometry y="10" width="50" height="50" relative="1" as="geometry">
            <mxPoint x="351.14000000000004" y="131.08000000000004" as="sourcePoint" />
            <mxPoint x="570.7" y="115" as="targetPoint" />
            <mxPoint as="offset" />
          </mxGeometry>
        </mxCell>
        <mxCell id="9Jy4_vVz5wrA9Z0WlYyC-15" value="" style="endArrow=none;dashed=1;html=1;rounded=0;entryX=0.5;entryY=1;entryDx=0;entryDy=0;" edge="1" parent="1" source="9Jy4_vVz5wrA9Z0WlYyC-29" target="9Jy4_vVz5wrA9Z0WlYyC-16">
          <mxGeometry width="50" height="50" relative="1" as="geometry">
            <mxPoint x="580" y="680" as="sourcePoint" />
            <mxPoint x="580" y="80" as="targetPoint" />
          </mxGeometry>
        </mxCell>
        <mxCell id="9Jy4_vVz5wrA9Z0WlYyC-16" value="" style="rounded=0;whiteSpace=wrap;html=1;" vertex="1" parent="1">
          <mxGeometry x="570.7" y="130" width="20" height="170" as="geometry" />
        </mxCell>
        <mxCell id="9Jy4_vVz5wrA9Z0WlYyC-17" value="" style="endArrow=none;dashed=1;html=1;rounded=0;entryX=0.5;entryY=1;entryDx=0;entryDy=0;" edge="1" parent="1" source="9Jy4_vVz5wrA9Z0WlYyC-33" target="9Jy4_vVz5wrA9Z0WlYyC-18">
          <mxGeometry width="50" height="50" relative="1" as="geometry">
            <mxPoint x="920" y="680" as="sourcePoint" />
            <mxPoint x="920" y="80" as="targetPoint" />
          </mxGeometry>
        </mxCell>
        <mxCell id="9Jy4_vVz5wrA9Z0WlYyC-18" value="" style="rounded=0;whiteSpace=wrap;html=1;" vertex="1" parent="1">
          <mxGeometry x="910.7" y="160" width="20" height="60" as="geometry" />
        </mxCell>
        <mxCell id="9Jy4_vVz5wrA9Z0WlYyC-19" value="findAll()" style="endArrow=classic;html=1;rounded=0;entryX=0;entryY=0;entryDx=0;entryDy=0;" edge="1" parent="1" target="9Jy4_vVz5wrA9Z0WlYyC-18">
          <mxGeometry y="10" width="50" height="50" relative="1" as="geometry">
            <mxPoint x="590.7" y="160" as="sourcePoint" />
            <mxPoint x="810.7" y="159.17000000000002" as="targetPoint" />
            <mxPoint as="offset" />
          </mxGeometry>
        </mxCell>
        <mxCell id="9Jy4_vVz5wrA9Z0WlYyC-20" value=":List&amp;lt;Entity&amp;gt;" style="endArrow=none;dashed=1;html=1;rounded=0;entryX=0;entryY=1;entryDx=0;entryDy=0;exitX=1.088;exitY=0.53;exitDx=0;exitDy=0;exitPerimeter=0;startArrow=classic;startFill=1;" edge="1" parent="1" source="9Jy4_vVz5wrA9Z0WlYyC-16" target="9Jy4_vVz5wrA9Z0WlYyC-18">
          <mxGeometry x="-0.001" y="10" width="50" height="50" relative="1" as="geometry">
            <mxPoint x="600.7" y="220" as="sourcePoint" />
            <mxPoint x="720.7" y="200" as="targetPoint" />
            <mxPoint as="offset" />
          </mxGeometry>
        </mxCell>
        <mxCell id="9Jy4_vVz5wrA9Z0WlYyC-21" value="Chuyển :List&amp;lt;Entity&amp;gt; sang :List&amp;lt;Model&amp;gt;" style="endArrow=classic;html=1;rounded=0;entryX=1.003;entryY=0.928;entryDx=0;entryDy=0;exitX=1;exitY=0.75;exitDx=0;exitDy=0;edgeStyle=elbowEdgeStyle;entryPerimeter=0;" edge="1" parent="1" source="9Jy4_vVz5wrA9Z0WlYyC-16" target="9Jy4_vVz5wrA9Z0WlYyC-16">
          <mxGeometry x="-0.0924" y="-10" width="50" height="50" relative="1" as="geometry">
            <mxPoint x="590.7" y="250" as="sourcePoint" />
            <mxPoint x="640.7" y="250" as="targetPoint" />
            <Array as="points">
              <mxPoint x="720.7" y="270" />
              <mxPoint x="720.7" y="245" />
            </Array>
            <mxPoint x="10" y="-10" as="offset" />
          </mxGeometry>
        </mxCell>
        <mxCell id="9Jy4_vVz5wrA9Z0WlYyC-22" value=":List&amp;lt;Model&amp;gt;" style="endArrow=none;dashed=1;html=1;rounded=0;entryX=0;entryY=1;entryDx=0;entryDy=0;exitX=0.965;exitY=0.953;exitDx=0;exitDy=0;exitPerimeter=0;startArrow=classic;startFill=1;" edge="1" parent="1" target="9Jy4_vVz5wrA9Z0WlYyC-16">
          <mxGeometry x="0.0032" y="10" width="50" height="50" relative="1" as="geometry">
            <mxPoint x="349.99999999999994" y="300.13" as="sourcePoint" />
            <mxPoint x="520.7" y="250" as="targetPoint" />
            <mxPoint as="offset" />
          </mxGeometry>
        </mxCell>
        <mxCell id="9Jy4_vVz5wrA9Z0WlYyC-23" value="Response OK: :List&amp;lt;Model&amp;gt;" style="endArrow=none;dashed=1;html=1;rounded=0;entryX=0;entryY=1;entryDx=0;entryDy=0;exitX=1.045;exitY=0.952;exitDx=0;exitDy=0;exitPerimeter=0;startArrow=classic;startFill=1;" edge="1" parent="1" source="9Jy4_vVz5wrA9Z0WlYyC-9" target="9Jy4_vVz5wrA9Z0WlYyC-13">
          <mxGeometry x="0.0032" y="10" width="50" height="50" relative="1" as="geometry">
            <mxPoint x="100" y="330" as="sourcePoint" />
            <mxPoint x="321" y="330" as="targetPoint" />
            <mxPoint as="offset" />
          </mxGeometry>
        </mxCell>
        <mxCell id="9Jy4_vVz5wrA9Z0WlYyC-24" value="" style="endArrow=none;dashed=1;html=1;rounded=0;entryX=0.5;entryY=1;entryDx=0;entryDy=0;" edge="1" parent="1" target="9Jy4_vVz5wrA9Z0WlYyC-25">
          <mxGeometry width="50" height="50" relative="1" as="geometry">
            <mxPoint x="80" y="680" as="sourcePoint" />
            <mxPoint x="80" y="80" as="targetPoint" />
          </mxGeometry>
        </mxCell>
        <mxCell id="9Jy4_vVz5wrA9Z0WlYyC-25" value="" style="rounded=0;whiteSpace=wrap;html=1;" vertex="1" parent="1">
          <mxGeometry x="70" y="370" width="20" height="330" as="geometry" />
        </mxCell>
        <mxCell id="9Jy4_vVz5wrA9Z0WlYyC-26" value="GET /api/&amp;lt;entity&amp;gt;/{id}" style="endArrow=classic;html=1;rounded=0;exitX=1;exitY=0;exitDx=0;exitDy=0;fontStyle=1" edge="1" parent="1" source="9Jy4_vVz5wrA9Z0WlYyC-25">
          <mxGeometry y="10" width="50" height="50" relative="1" as="geometry">
            <mxPoint x="400" y="340" as="sourcePoint" />
            <mxPoint x="330" y="370" as="targetPoint" />
            <mxPoint as="offset" />
          </mxGeometry>
        </mxCell>
        <mxCell id="9Jy4_vVz5wrA9Z0WlYyC-27" value="" style="rounded=0;whiteSpace=wrap;html=1;" vertex="1" parent="1">
          <mxGeometry x="330" y="370" width="20" height="310" as="geometry" />
        </mxCell>
        <mxCell id="9Jy4_vVz5wrA9Z0WlYyC-28" value="" style="endArrow=none;dashed=1;html=1;rounded=0;entryX=0.5;entryY=1;entryDx=0;entryDy=0;" edge="1" parent="1" target="9Jy4_vVz5wrA9Z0WlYyC-29">
          <mxGeometry width="50" height="50" relative="1" as="geometry">
            <mxPoint x="580" y="760" as="sourcePoint" />
            <mxPoint x="581" y="300" as="targetPoint" />
          </mxGeometry>
        </mxCell>
        <mxCell id="9Jy4_vVz5wrA9Z0WlYyC-29" value="" style="rounded=0;whiteSpace=wrap;html=1;" vertex="1" parent="1">
          <mxGeometry x="570" y="380" width="20" height="260" as="geometry" />
        </mxCell>
        <mxCell id="9Jy4_vVz5wrA9Z0WlYyC-30" value="getByid(id)" style="endArrow=classic;html=1;rounded=0;exitX=1.022;exitY=0.148;exitDx=0;exitDy=0;entryX=0;entryY=0;entryDx=0;entryDy=0;exitPerimeter=0;" edge="1" parent="1">
          <mxGeometry y="10" width="50" height="50" relative="1" as="geometry">
            <mxPoint x="350.00000000000006" y="381.08000000000004" as="sourcePoint" />
            <mxPoint x="569.86" y="380" as="targetPoint" />
            <mxPoint as="offset" />
          </mxGeometry>
        </mxCell>
        <mxCell id="9Jy4_vVz5wrA9Z0WlYyC-31" value="findByid(id)" style="endArrow=classic;html=1;rounded=0;entryX=0;entryY=0;entryDx=0;entryDy=0;" edge="1" parent="1" target="9Jy4_vVz5wrA9Z0WlYyC-33">
          <mxGeometry y="10" width="50" height="50" relative="1" as="geometry">
            <mxPoint x="590" y="400" as="sourcePoint" />
            <mxPoint x="809.86" y="400" as="targetPoint" />
            <mxPoint as="offset" />
          </mxGeometry>
        </mxCell>
        <mxCell id="9Jy4_vVz5wrA9Z0WlYyC-32" value="" style="endArrow=none;dashed=1;html=1;rounded=0;entryX=0.5;entryY=1;entryDx=0;entryDy=0;" edge="1" parent="1" target="9Jy4_vVz5wrA9Z0WlYyC-33">
          <mxGeometry width="50" height="50" relative="1" as="geometry">
            <mxPoint x="921" y="760" as="sourcePoint" />
            <mxPoint x="921" y="220" as="targetPoint" />
          </mxGeometry>
        </mxCell>
        <mxCell id="9Jy4_vVz5wrA9Z0WlYyC-33" value="" style="rounded=0;whiteSpace=wrap;html=1;" vertex="1" parent="1">
          <mxGeometry x="910.7" y="400" width="20" height="40" as="geometry" />
        </mxCell>
        <mxCell id="9Jy4_vVz5wrA9Z0WlYyC-34" value=":Entity?" style="endArrow=none;dashed=1;html=1;rounded=0;startArrow=classic;startFill=1;entryX=0;entryY=1;entryDx=0;entryDy=0;" edge="1" parent="1" target="9Jy4_vVz5wrA9Z0WlYyC-33">
          <mxGeometry x="-0.001" y="10" width="50" height="50" relative="1" as="geometry">
            <mxPoint x="590" y="440" as="sourcePoint" />
            <mxPoint x="910" y="464.77" as="targetPoint" />
            <mxPoint as="offset" />
          </mxGeometry>
        </mxCell>
        <mxCell id="9Jy4_vVz5wrA9Z0WlYyC-35" value="alt" style="shape=umlFrame;whiteSpace=wrap;html=1;pointerEvents=0;recursiveResize=0;container=1;collapsible=0;width=160;height=20;" vertex="1" parent="1">
          <mxGeometry x="40" y="460" width="800" height="260" as="geometry" />
        </mxCell>
        <mxCell id="9Jy4_vVz5wrA9Z0WlYyC-36" value="[:Entity != null]" style="text;html=1;align=center;verticalAlign=middle;resizable=0;points=[];autosize=1;strokeColor=none;fillColor=none;" vertex="1" parent="9Jy4_vVz5wrA9Z0WlYyC-35">
          <mxGeometry x="50" y="20" width="100" height="30" as="geometry" />
        </mxCell>
        <mxCell id="9Jy4_vVz5wrA9Z0WlYyC-37" value="Chuyển :Entity sang :Model" style="endArrow=classic;html=1;rounded=0;entryX=1.003;entryY=0.928;entryDx=0;entryDy=0;exitX=1;exitY=0.75;exitDx=0;exitDy=0;edgeStyle=elbowEdgeStyle;entryPerimeter=0;" edge="1" parent="9Jy4_vVz5wrA9Z0WlYyC-35">
          <mxGeometry x="-0.0924" y="-10" width="50" height="50" relative="1" as="geometry">
            <mxPoint x="550" y="24" as="sourcePoint" />
            <mxPoint x="550" y="54" as="targetPoint" />
            <Array as="points">
              <mxPoint x="679.7" y="36" />
              <mxPoint x="679.7" y="11" />
            </Array>
            <mxPoint x="10" y="-10" as="offset" />
          </mxGeometry>
        </mxCell>
        <mxCell id="9Jy4_vVz5wrA9Z0WlYyC-38" value="[Else]" style="text;html=1;align=center;verticalAlign=middle;resizable=0;points=[];autosize=1;strokeColor=none;fillColor=none;" vertex="1" parent="9Jy4_vVz5wrA9Z0WlYyC-35">
          <mxGeometry x="55" y="137" width="50" height="30" as="geometry" />
        </mxCell>
        <mxCell id="9Jy4_vVz5wrA9Z0WlYyC-39" value=":Model" style="endArrow=none;dashed=1;html=1;rounded=0;startArrow=classic;startFill=1;entryX=-0.019;entryY=0.571;entryDx=0;entryDy=0;entryPerimeter=0;" edge="1" parent="1" target="9Jy4_vVz5wrA9Z0WlYyC-29">
          <mxGeometry x="-0.001" y="10" width="50" height="50" relative="1" as="geometry">
            <mxPoint x="350" y="530" as="sourcePoint" />
            <mxPoint x="550" y="560" as="targetPoint" />
            <mxPoint as="offset" />
          </mxGeometry>
        </mxCell>
        <mxCell id="9Jy4_vVz5wrA9Z0WlYyC-40" value="Response OK: :Model" style="endArrow=none;dashed=1;html=1;rounded=0;startArrow=classic;startFill=1;entryX=0.01;entryY=0.443;entryDx=0;entryDy=0;exitX=1.048;exitY=0.421;exitDx=0;exitDy=0;exitPerimeter=0;entryPerimeter=0;" edge="1" parent="1">
          <mxGeometry x="-0.001" y="10" width="50" height="50" relative="1" as="geometry">
            <mxPoint x="90.96000000000004" y="558.4499999999998" as="sourcePoint" />
            <mxPoint x="330.20000000000005" y="559.49" as="targetPoint" />
            <mxPoint as="offset" />
          </mxGeometry>
        </mxCell>
        <mxCell id="9Jy4_vVz5wrA9Z0WlYyC-41" value="throw :Exception" style="endArrow=none;dashed=1;html=1;rounded=0;startArrow=classic;startFill=1;entryX=0;entryY=1;entryDx=0;entryDy=0;exitX=0.993;exitY=0.871;exitDx=0;exitDy=0;exitPerimeter=0;" edge="1" parent="1" source="9Jy4_vVz5wrA9Z0WlYyC-27" target="9Jy4_vVz5wrA9Z0WlYyC-29">
          <mxGeometry x="-0.001" y="10" width="50" height="50" relative="1" as="geometry">
            <mxPoint x="310" y="652" as="sourcePoint" />
            <mxPoint x="530" y="650" as="targetPoint" />
            <mxPoint as="offset" />
          </mxGeometry>
        </mxCell>
        <mxCell id="9Jy4_vVz5wrA9Z0WlYyC-42" value="Response NOT FOUND" style="endArrow=none;dashed=1;html=1;rounded=0;startArrow=classic;startFill=1;entryX=0;entryY=1;entryDx=0;entryDy=0;" edge="1" parent="1" target="9Jy4_vVz5wrA9Z0WlYyC-27">
          <mxGeometry x="-0.001" y="10" width="50" height="50" relative="1" as="geometry">
            <mxPoint x="90" y="680" as="sourcePoint" />
            <mxPoint x="320" y="710" as="targetPoint" />
            <mxPoint as="offset" />
          </mxGeometry>
        </mxCell>
        <mxCell id="9Jy4_vVz5wrA9Z0WlYyC-43" value="" style="endArrow=none;dashed=1;html=1;rounded=0;entryX=0.5;entryY=1;entryDx=0;entryDy=0;" edge="1" parent="1">
          <mxGeometry width="50" height="50" relative="1" as="geometry">
            <mxPoint x="80" y="760" as="sourcePoint" />
            <mxPoint x="79.69" y="700" as="targetPoint" />
          </mxGeometry>
        </mxCell>
        <mxCell id="9Jy4_vVz5wrA9Z0WlYyC-44" value="" style="endArrow=none;dashed=1;html=1;rounded=0;exitX=-0.001;exitY=0.537;exitDx=0;exitDy=0;exitPerimeter=0;entryX=1.002;entryY=0.535;entryDx=0;entryDy=0;entryPerimeter=0;" edge="1" parent="1" source="9Jy4_vVz5wrA9Z0WlYyC-35" target="9Jy4_vVz5wrA9Z0WlYyC-35">
          <mxGeometry width="50" height="50" relative="1" as="geometry">
            <mxPoint x="360" y="590" as="sourcePoint" />
            <mxPoint x="410" y="540" as="targetPoint" />
          </mxGeometry>
        </mxCell>
      </root>
    </mxGraphModel>
  </diagram>
  <diagram id="RcY8ydNmQOKSDqqtatMK" name="Crud API (POST, PUT, DELETE)">
    <mxGraphModel dx="1377" dy="756" grid="1" gridSize="10" guides="1" tooltips="1" connect="1" arrows="1" fold="1" page="1" pageScale="1" pageWidth="850" pageHeight="1100" math="0" shadow="0">
      <root>
        <mxCell id="0" />
        <mxCell id="1" parent="0" />
        <mxCell id="Nq0xi3Fm1elqvccIHUtt-1" value=":Middleware" style="rounded=0;whiteSpace=wrap;html=1;" vertex="1" parent="1">
          <mxGeometry x="40" y="40" width="80" height="40" as="geometry" />
        </mxCell>
        <mxCell id="Nq0xi3Fm1elqvccIHUtt-2" value=":Controller" style="rounded=0;whiteSpace=wrap;html=1;" vertex="1" parent="1">
          <mxGeometry x="280" y="40" width="120" height="40" as="geometry" />
        </mxCell>
        <mxCell id="Nq0xi3Fm1elqvccIHUtt-3" value=":Service" style="rounded=0;whiteSpace=wrap;html=1;" vertex="1" parent="1">
          <mxGeometry x="520" y="40" width="120" height="40" as="geometry" />
        </mxCell>
        <mxCell id="Nq0xi3Fm1elqvccIHUtt-4" value="" style="endArrow=none;dashed=1;html=1;rounded=0;entryX=0.5;entryY=1;entryDx=0;entryDy=0;" edge="1" parent="1" target="Nq0xi3Fm1elqvccIHUtt-1">
          <mxGeometry width="50" height="50" relative="1" as="geometry">
            <mxPoint x="80" y="800" as="sourcePoint" />
            <mxPoint x="490" y="210" as="targetPoint" />
          </mxGeometry>
        </mxCell>
        <mxCell id="Nq0xi3Fm1elqvccIHUtt-5" value="" style="endArrow=none;dashed=1;html=1;rounded=0;entryX=0.5;entryY=1;entryDx=0;entryDy=0;" edge="1" parent="1" target="Nq0xi3Fm1elqvccIHUtt-2">
          <mxGeometry width="50" height="50" relative="1" as="geometry">
            <mxPoint x="340" y="800" as="sourcePoint" />
            <mxPoint x="339.44" y="90" as="targetPoint" />
          </mxGeometry>
        </mxCell>
        <mxCell id="Nq0xi3Fm1elqvccIHUtt-6" value="" style="endArrow=none;dashed=1;html=1;rounded=0;entryX=0.5;entryY=1;entryDx=0;entryDy=0;" edge="1" parent="1" source="Nq0xi3Fm1elqvccIHUtt-14" target="Nq0xi3Fm1elqvccIHUtt-3">
          <mxGeometry width="50" height="50" relative="1" as="geometry">
            <mxPoint x="580" y="800" as="sourcePoint" />
            <mxPoint x="579.44" y="100" as="targetPoint" />
          </mxGeometry>
        </mxCell>
        <mxCell id="Nq0xi3Fm1elqvccIHUtt-7" value=":Repository" style="rounded=0;whiteSpace=wrap;html=1;" vertex="1" parent="1">
          <mxGeometry x="860" y="40" width="120" height="40" as="geometry" />
        </mxCell>
        <mxCell id="Nq0xi3Fm1elqvccIHUtt-8" value="" style="endArrow=none;dashed=1;html=1;rounded=0;entryX=0.5;entryY=1;entryDx=0;entryDy=0;" edge="1" parent="1" source="Nq0xi3Fm1elqvccIHUtt-19" target="Nq0xi3Fm1elqvccIHUtt-7">
          <mxGeometry width="50" height="50" relative="1" as="geometry">
            <mxPoint x="920" y="800" as="sourcePoint" />
            <mxPoint x="919" y="90" as="targetPoint" />
          </mxGeometry>
        </mxCell>
        <mxCell id="Nq0xi3Fm1elqvccIHUtt-9" value="" style="rounded=0;whiteSpace=wrap;html=1;" vertex="1" parent="1">
          <mxGeometry x="70" y="110" width="20" height="100" as="geometry" />
        </mxCell>
        <mxCell id="Nq0xi3Fm1elqvccIHUtt-10" value="POST /api/&amp;lt;entity&amp;gt;&lt;br&gt;Body: model:Model" style="endArrow=classic;html=1;rounded=0;exitX=1;exitY=0;exitDx=0;exitDy=0;fontStyle=1" edge="1" parent="1" source="Nq0xi3Fm1elqvccIHUtt-9">
          <mxGeometry y="20" width="50" height="50" relative="1" as="geometry">
            <mxPoint x="420" y="300" as="sourcePoint" />
            <mxPoint x="330" y="110" as="targetPoint" />
            <mxPoint as="offset" />
          </mxGeometry>
        </mxCell>
        <mxCell id="Nq0xi3Fm1elqvccIHUtt-11" value="" style="rounded=0;whiteSpace=wrap;html=1;" vertex="1" parent="1">
          <mxGeometry x="330" y="110" width="20" height="90" as="geometry" />
        </mxCell>
        <mxCell id="Nq0xi3Fm1elqvccIHUtt-12" value="" style="endArrow=classic;html=1;rounded=0;entryX=0;entryY=0;entryDx=0;entryDy=0;" edge="1" parent="1" target="Nq0xi3Fm1elqvccIHUtt-14">
          <mxGeometry width="50" height="50" relative="1" as="geometry">
            <mxPoint x="360" y="120" as="sourcePoint" />
            <mxPoint x="370" y="180" as="targetPoint" />
          </mxGeometry>
        </mxCell>
        <mxCell id="Nq0xi3Fm1elqvccIHUtt-13" value="" style="endArrow=none;dashed=1;html=1;rounded=0;entryX=0.5;entryY=1;entryDx=0;entryDy=0;" edge="1" parent="1" target="Nq0xi3Fm1elqvccIHUtt-14">
          <mxGeometry width="50" height="50" relative="1" as="geometry">
            <mxPoint x="580" y="800" as="sourcePoint" />
            <mxPoint x="580" y="80" as="targetPoint" />
          </mxGeometry>
        </mxCell>
        <mxCell id="Nq0xi3Fm1elqvccIHUtt-14" value="" style="rounded=0;whiteSpace=wrap;html=1;" vertex="1" parent="1">
          <mxGeometry x="570" y="120" width="20" height="70" as="geometry" />
        </mxCell>
        <mxCell id="Nq0xi3Fm1elqvccIHUtt-15" value="insert(model)" style="endArrow=classic;html=1;rounded=0;entryX=0;entryY=0;entryDx=0;entryDy=0;" edge="1" parent="1" target="Nq0xi3Fm1elqvccIHUtt-14">
          <mxGeometry y="10" width="50" height="50" relative="1" as="geometry">
            <mxPoint x="350" y="120" as="sourcePoint" />
            <mxPoint x="370" y="180" as="targetPoint" />
            <mxPoint as="offset" />
          </mxGeometry>
        </mxCell>
        <mxCell id="Nq0xi3Fm1elqvccIHUtt-16" value="Chuyển model sang entity:Entity" style="endArrow=classic;html=1;rounded=0;edgeStyle=elbowEdgeStyle;" edge="1" parent="1">
          <mxGeometry x="-0.5" y="10" width="50" height="50" relative="1" as="geometry">
            <mxPoint x="590" y="130" as="sourcePoint" />
            <mxPoint x="590" y="150" as="targetPoint" />
            <Array as="points">
              <mxPoint x="800" y="140" />
            </Array>
            <mxPoint as="offset" />
          </mxGeometry>
        </mxCell>
        <mxCell id="Nq0xi3Fm1elqvccIHUtt-17" value="save(entity)" style="endArrow=classic;html=1;rounded=0;entryX=0;entryY=0.5;entryDx=0;entryDy=0;" edge="1" parent="1" target="Nq0xi3Fm1elqvccIHUtt-19">
          <mxGeometry x="-0.0053" y="9" width="50" height="50" relative="1" as="geometry">
            <mxPoint x="590" y="180" as="sourcePoint" />
            <mxPoint x="690" y="180" as="targetPoint" />
            <mxPoint as="offset" />
          </mxGeometry>
        </mxCell>
        <mxCell id="Nq0xi3Fm1elqvccIHUtt-18" value="" style="endArrow=none;dashed=1;html=1;rounded=0;entryX=0.5;entryY=1;entryDx=0;entryDy=0;" edge="1" parent="1" target="Nq0xi3Fm1elqvccIHUtt-19">
          <mxGeometry width="50" height="50" relative="1" as="geometry">
            <mxPoint x="920" y="800" as="sourcePoint" />
            <mxPoint x="920" y="80" as="targetPoint" />
          </mxGeometry>
        </mxCell>
        <mxCell id="Nq0xi3Fm1elqvccIHUtt-19" value="" style="rounded=0;whiteSpace=wrap;html=1;" vertex="1" parent="1">
          <mxGeometry x="910" y="170" width="20" height="20" as="geometry" />
        </mxCell>
        <mxCell id="Nq0xi3Fm1elqvccIHUtt-20" value="Response CREATED" style="endArrow=none;dashed=1;html=1;rounded=0;entryX=0;entryY=1;entryDx=0;entryDy=0;exitX=0.985;exitY=0.9;exitDx=0;exitDy=0;exitPerimeter=0;startArrow=classic;startFill=1;" edge="1" parent="1" source="Nq0xi3Fm1elqvccIHUtt-9" target="Nq0xi3Fm1elqvccIHUtt-11">
          <mxGeometry x="0.0012" y="10" width="50" height="50" relative="1" as="geometry">
            <mxPoint x="290" y="230" as="sourcePoint" />
            <mxPoint x="340" y="180" as="targetPoint" />
            <mxPoint as="offset" />
          </mxGeometry>
        </mxCell>
        <mxCell id="Nq0xi3Fm1elqvccIHUtt-21" value="" style="rounded=0;whiteSpace=wrap;html=1;" vertex="1" parent="1">
          <mxGeometry x="70" y="260" width="20" height="200" as="geometry" />
        </mxCell>
        <mxCell id="Nq0xi3Fm1elqvccIHUtt-22" value="PUT /api/&amp;lt;entity&amp;gt;&lt;br&gt;Body: model:Model" style="endArrow=classic;html=1;rounded=0;exitX=1;exitY=0;exitDx=0;exitDy=0;fontStyle=1" edge="1" parent="1" source="Nq0xi3Fm1elqvccIHUtt-21">
          <mxGeometry y="20" width="50" height="50" relative="1" as="geometry">
            <mxPoint x="420" y="450" as="sourcePoint" />
            <mxPoint x="330" y="260" as="targetPoint" />
            <mxPoint as="offset" />
          </mxGeometry>
        </mxCell>
        <mxCell id="Nq0xi3Fm1elqvccIHUtt-23" value="" style="rounded=0;whiteSpace=wrap;html=1;" vertex="1" parent="1">
          <mxGeometry x="330" y="260" width="20" height="190" as="geometry" />
        </mxCell>
        <mxCell id="Nq0xi3Fm1elqvccIHUtt-24" value="" style="rounded=0;whiteSpace=wrap;html=1;" vertex="1" parent="1">
          <mxGeometry x="570" y="270" width="20" height="170" as="geometry" />
        </mxCell>
        <mxCell id="Nq0xi3Fm1elqvccIHUtt-25" value="update(model)" style="endArrow=classic;html=1;rounded=0;entryX=0;entryY=0;entryDx=0;entryDy=0;" edge="1" parent="1" target="Nq0xi3Fm1elqvccIHUtt-24">
          <mxGeometry y="10" width="50" height="50" relative="1" as="geometry">
            <mxPoint x="350" y="270" as="sourcePoint" />
            <mxPoint x="370" y="330" as="targetPoint" />
            <mxPoint as="offset" />
          </mxGeometry>
        </mxCell>
        <mxCell id="Nq0xi3Fm1elqvccIHUtt-26" value="Chuyển model sang newEntity:Entity" style="endArrow=classic;html=1;rounded=0;edgeStyle=elbowEdgeStyle;" edge="1" parent="1">
          <mxGeometry x="-0.5" y="10" width="50" height="50" relative="1" as="geometry">
            <mxPoint x="590" y="280" as="sourcePoint" />
            <mxPoint x="590" y="300" as="targetPoint" />
            <Array as="points">
              <mxPoint x="800" y="290" />
            </Array>
            <mxPoint as="offset" />
          </mxGeometry>
        </mxCell>
        <mxCell id="Nq0xi3Fm1elqvccIHUtt-27" value="save(newEntity)" style="endArrow=classic;html=1;rounded=0;entryX=-0.011;entryY=0.924;entryDx=0;entryDy=0;entryPerimeter=0;exitX=1.01;exitY=0.944;exitDx=0;exitDy=0;exitPerimeter=0;" edge="1" parent="1" source="Nq0xi3Fm1elqvccIHUtt-24" target="Nq0xi3Fm1elqvccIHUtt-28">
          <mxGeometry x="-0.0053" y="9" width="50" height="50" relative="1" as="geometry">
            <mxPoint x="590" y="330" as="sourcePoint" />
            <mxPoint x="690" y="330" as="targetPoint" />
            <mxPoint as="offset" />
          </mxGeometry>
        </mxCell>
        <mxCell id="Nq0xi3Fm1elqvccIHUtt-28" value="" style="rounded=0;whiteSpace=wrap;html=1;" vertex="1" parent="1">
          <mxGeometry x="910" y="320" width="20" height="120" as="geometry" />
        </mxCell>
        <mxCell id="Nq0xi3Fm1elqvccIHUtt-29" value="Response OK" style="endArrow=none;dashed=1;html=1;rounded=0;entryX=0;entryY=1;entryDx=0;entryDy=0;startArrow=classic;startFill=1;" edge="1" parent="1" target="Nq0xi3Fm1elqvccIHUtt-23">
          <mxGeometry x="0.0012" y="10" width="50" height="50" relative="1" as="geometry">
            <mxPoint x="90" y="450" as="sourcePoint" />
            <mxPoint x="340" y="330" as="targetPoint" />
            <mxPoint as="offset" />
          </mxGeometry>
        </mxCell>
        <mxCell id="Nq0xi3Fm1elqvccIHUtt-30" value="findById(newEntity.id)" style="endArrow=classic;html=1;rounded=0;exitX=1.009;exitY=0.292;exitDx=0;exitDy=0;exitPerimeter=0;entryX=0;entryY=0;entryDx=0;entryDy=0;" edge="1" parent="1" source="Nq0xi3Fm1elqvccIHUtt-24" target="Nq0xi3Fm1elqvccIHUtt-28">
          <mxGeometry x="-0.0006" y="10" width="50" height="50" relative="1" as="geometry">
            <mxPoint x="680" y="390" as="sourcePoint" />
            <mxPoint x="730" y="340" as="targetPoint" />
            <mxPoint as="offset" />
          </mxGeometry>
        </mxCell>
        <mxCell id="Nq0xi3Fm1elqvccIHUtt-31" value="oldEntity:Entity" style="endArrow=none;dashed=1;html=1;rounded=0;entryX=0;entryY=0.25;entryDx=0;entryDy=0;exitX=1.025;exitY=0.475;exitDx=0;exitDy=0;exitPerimeter=0;startArrow=classic;startFill=1;" edge="1" parent="1" source="Nq0xi3Fm1elqvccIHUtt-24" target="Nq0xi3Fm1elqvccIHUtt-28">
          <mxGeometry x="-0.0014" y="10" width="50" height="50" relative="1" as="geometry">
            <mxPoint x="680" y="390" as="sourcePoint" />
            <mxPoint x="730" y="340" as="targetPoint" />
            <mxPoint as="offset" />
          </mxGeometry>
        </mxCell>
        <mxCell id="Nq0xi3Fm1elqvccIHUtt-32" value="Hợp nhất oldEntity và newEntity =&amp;gt; newEntity" style="endArrow=classic;html=1;rounded=0;exitX=1.017;exitY=0.646;exitDx=0;exitDy=0;exitPerimeter=0;entryX=1;entryY=0.75;entryDx=0;entryDy=0;edgeStyle=elbowEdgeStyle;" edge="1" parent="1" source="Nq0xi3Fm1elqvccIHUtt-24">
          <mxGeometry x="-0.5006" y="10" width="50" height="50" relative="1" as="geometry">
            <mxPoint x="591.0200000000002" y="379.94999999999993" as="sourcePoint" />
            <mxPoint x="590" y="399.5" as="targetPoint" />
            <Array as="points">
              <mxPoint x="860" y="392" />
              <mxPoint x="860" y="412" />
            </Array>
            <mxPoint as="offset" />
          </mxGeometry>
        </mxCell>
        <mxCell id="Nq0xi3Fm1elqvccIHUtt-33" value="Success" style="endArrow=none;dashed=1;html=1;rounded=0;entryX=0;entryY=1;entryDx=0;entryDy=0;startArrow=classic;startFill=1;" edge="1" parent="1">
          <mxGeometry x="0.0012" y="10" width="50" height="50" relative="1" as="geometry">
            <mxPoint x="350" y="190" as="sourcePoint" />
            <mxPoint x="570" y="190" as="targetPoint" />
            <mxPoint as="offset" />
          </mxGeometry>
        </mxCell>
        <mxCell id="Nq0xi3Fm1elqvccIHUtt-34" value="Success" style="endArrow=none;dashed=1;html=1;rounded=0;entryX=0;entryY=1;entryDx=0;entryDy=0;startArrow=classic;startFill=1;" edge="1" parent="1">
          <mxGeometry x="0.0012" y="10" width="50" height="50" relative="1" as="geometry">
            <mxPoint x="350" y="438.95" as="sourcePoint" />
            <mxPoint x="570" y="438.95" as="targetPoint" />
            <mxPoint as="offset" />
          </mxGeometry>
        </mxCell>
        <mxCell id="Nq0xi3Fm1elqvccIHUtt-35" value="" style="rounded=0;whiteSpace=wrap;html=1;" vertex="1" parent="1">
          <mxGeometry x="70" y="510" width="20" height="100" as="geometry" />
        </mxCell>
        <mxCell id="Nq0xi3Fm1elqvccIHUtt-36" value="DELETE /api/&amp;lt;entity&amp;gt;&lt;br&gt;Body: model:Model" style="endArrow=classic;html=1;rounded=0;exitX=1;exitY=0;exitDx=0;exitDy=0;fontStyle=1" edge="1" parent="1" source="Nq0xi3Fm1elqvccIHUtt-35">
          <mxGeometry y="20" width="50" height="50" relative="1" as="geometry">
            <mxPoint x="420" y="700" as="sourcePoint" />
            <mxPoint x="330" y="510" as="targetPoint" />
            <mxPoint as="offset" />
          </mxGeometry>
        </mxCell>
        <mxCell id="Nq0xi3Fm1elqvccIHUtt-37" value="" style="rounded=0;whiteSpace=wrap;html=1;" vertex="1" parent="1">
          <mxGeometry x="330" y="510" width="20" height="90" as="geometry" />
        </mxCell>
        <mxCell id="Nq0xi3Fm1elqvccIHUtt-38" value="" style="rounded=0;whiteSpace=wrap;html=1;" vertex="1" parent="1">
          <mxGeometry x="570" y="520" width="20" height="70" as="geometry" />
        </mxCell>
        <mxCell id="Nq0xi3Fm1elqvccIHUtt-39" value="delete(model)" style="endArrow=classic;html=1;rounded=0;entryX=0;entryY=0;entryDx=0;entryDy=0;" edge="1" parent="1" target="Nq0xi3Fm1elqvccIHUtt-38">
          <mxGeometry y="10" width="50" height="50" relative="1" as="geometry">
            <mxPoint x="350" y="520" as="sourcePoint" />
            <mxPoint x="370" y="580" as="targetPoint" />
            <mxPoint as="offset" />
          </mxGeometry>
        </mxCell>
        <mxCell id="Nq0xi3Fm1elqvccIHUtt-40" value="Chuyển model sang entity:Entity" style="endArrow=classic;html=1;rounded=0;edgeStyle=elbowEdgeStyle;" edge="1" parent="1">
          <mxGeometry x="-0.5" y="10" width="50" height="50" relative="1" as="geometry">
            <mxPoint x="590" y="530" as="sourcePoint" />
            <mxPoint x="590" y="550" as="targetPoint" />
            <Array as="points">
              <mxPoint x="800" y="540" />
            </Array>
            <mxPoint as="offset" />
          </mxGeometry>
        </mxCell>
        <mxCell id="Nq0xi3Fm1elqvccIHUtt-41" value="delete(entity)" style="endArrow=classic;html=1;rounded=0;entryX=0;entryY=0.5;entryDx=0;entryDy=0;" edge="1" parent="1" target="Nq0xi3Fm1elqvccIHUtt-42">
          <mxGeometry x="-0.0053" y="9" width="50" height="50" relative="1" as="geometry">
            <mxPoint x="590" y="580" as="sourcePoint" />
            <mxPoint x="690" y="580" as="targetPoint" />
            <mxPoint as="offset" />
          </mxGeometry>
        </mxCell>
        <mxCell id="Nq0xi3Fm1elqvccIHUtt-42" value="" style="rounded=0;whiteSpace=wrap;html=1;" vertex="1" parent="1">
          <mxGeometry x="910" y="570" width="20" height="20" as="geometry" />
        </mxCell>
        <mxCell id="Nq0xi3Fm1elqvccIHUtt-43" value="Response OK" style="endArrow=none;dashed=1;html=1;rounded=0;entryX=0;entryY=1;entryDx=0;entryDy=0;exitX=0.985;exitY=0.9;exitDx=0;exitDy=0;exitPerimeter=0;startArrow=classic;startFill=1;" edge="1" parent="1" source="Nq0xi3Fm1elqvccIHUtt-35" target="Nq0xi3Fm1elqvccIHUtt-37">
          <mxGeometry x="0.0012" y="10" width="50" height="50" relative="1" as="geometry">
            <mxPoint x="290" y="630" as="sourcePoint" />
            <mxPoint x="340" y="580" as="targetPoint" />
            <mxPoint as="offset" />
          </mxGeometry>
        </mxCell>
        <mxCell id="Nq0xi3Fm1elqvccIHUtt-44" value="Success" style="endArrow=none;dashed=1;html=1;rounded=0;entryX=0;entryY=1;entryDx=0;entryDy=0;startArrow=classic;startFill=1;" edge="1" parent="1">
          <mxGeometry x="0.0012" y="10" width="50" height="50" relative="1" as="geometry">
            <mxPoint x="350" y="590" as="sourcePoint" />
            <mxPoint x="570" y="590" as="targetPoint" />
            <mxPoint as="offset" />
          </mxGeometry>
        </mxCell>
        <mxCell id="Nq0xi3Fm1elqvccIHUtt-45" value="" style="rounded=0;whiteSpace=wrap;html=1;" vertex="1" parent="1">
          <mxGeometry x="70" y="660" width="20" height="100" as="geometry" />
        </mxCell>
        <mxCell id="Nq0xi3Fm1elqvccIHUtt-46" value="DELETE /api/&amp;lt;entity&amp;gt;/{id}" style="endArrow=classic;html=1;rounded=0;exitX=1;exitY=0;exitDx=0;exitDy=0;fontStyle=1" edge="1" parent="1" source="Nq0xi3Fm1elqvccIHUtt-45">
          <mxGeometry y="10" width="50" height="50" relative="1" as="geometry">
            <mxPoint x="420" y="850" as="sourcePoint" />
            <mxPoint x="330" y="660" as="targetPoint" />
            <mxPoint as="offset" />
          </mxGeometry>
        </mxCell>
        <mxCell id="Nq0xi3Fm1elqvccIHUtt-47" value="" style="rounded=0;whiteSpace=wrap;html=1;" vertex="1" parent="1">
          <mxGeometry x="330" y="660" width="20" height="90" as="geometry" />
        </mxCell>
        <mxCell id="Nq0xi3Fm1elqvccIHUtt-48" value="" style="rounded=0;whiteSpace=wrap;html=1;" vertex="1" parent="1">
          <mxGeometry x="570" y="670" width="20" height="70" as="geometry" />
        </mxCell>
        <mxCell id="Nq0xi3Fm1elqvccIHUtt-49" value="deletebyId(id)" style="endArrow=classic;html=1;rounded=0;entryX=0;entryY=0;entryDx=0;entryDy=0;" edge="1" parent="1" target="Nq0xi3Fm1elqvccIHUtt-48">
          <mxGeometry y="10" width="50" height="50" relative="1" as="geometry">
            <mxPoint x="350" y="670" as="sourcePoint" />
            <mxPoint x="370" y="730" as="targetPoint" />
            <mxPoint as="offset" />
          </mxGeometry>
        </mxCell>
        <mxCell id="Nq0xi3Fm1elqvccIHUtt-50" value="deleteById(id)" style="endArrow=classic;html=1;rounded=0;entryX=0;entryY=0.5;entryDx=0;entryDy=0;" edge="1" parent="1" target="Nq0xi3Fm1elqvccIHUtt-51">
          <mxGeometry x="-0.0053" y="9" width="50" height="50" relative="1" as="geometry">
            <mxPoint x="590" y="705" as="sourcePoint" />
            <mxPoint x="690" y="705" as="targetPoint" />
            <mxPoint as="offset" />
          </mxGeometry>
        </mxCell>
        <mxCell id="Nq0xi3Fm1elqvccIHUtt-51" value="" style="rounded=0;whiteSpace=wrap;html=1;" vertex="1" parent="1">
          <mxGeometry x="910" y="695" width="20" height="20" as="geometry" />
        </mxCell>
        <mxCell id="Nq0xi3Fm1elqvccIHUtt-52" value="Response OK" style="endArrow=none;dashed=1;html=1;rounded=0;entryX=0;entryY=1;entryDx=0;entryDy=0;exitX=0.985;exitY=0.9;exitDx=0;exitDy=0;exitPerimeter=0;startArrow=classic;startFill=1;" edge="1" parent="1" source="Nq0xi3Fm1elqvccIHUtt-45" target="Nq0xi3Fm1elqvccIHUtt-47">
          <mxGeometry x="0.0012" y="10" width="50" height="50" relative="1" as="geometry">
            <mxPoint x="290" y="780" as="sourcePoint" />
            <mxPoint x="340" y="730" as="targetPoint" />
            <mxPoint as="offset" />
          </mxGeometry>
        </mxCell>
        <mxCell id="Nq0xi3Fm1elqvccIHUtt-53" value="Success" style="endArrow=none;dashed=1;html=1;rounded=0;entryX=0;entryY=1;entryDx=0;entryDy=0;startArrow=classic;startFill=1;" edge="1" parent="1">
          <mxGeometry x="0.0012" y="10" width="50" height="50" relative="1" as="geometry">
            <mxPoint x="350" y="740" as="sourcePoint" />
            <mxPoint x="570" y="740" as="targetPoint" />
            <mxPoint as="offset" />
          </mxGeometry>
        </mxCell>
      </root>
    </mxGraphModel>
  </diagram>
</mxfile>
